<?xml version="1.0" standalone="no"?><!DOCTYPE svg PUBLIC "-//W3C//DTD SVG 1.1//EN" "http://www.w3.org/Graphics/SVG/1.1/DTD/svg11.dtd"><svg t="1524043793912" class="icon" style="" viewBox="0 0 1541 1024" version="1.1" xmlns="http://www.w3.org/2000/svg" p-id="1353" xmlns:xlink="http://www.w3.org/1999/xlink" width="48.15625" height="32"><defs><style type="text/css"></style></defs><path d="M6.27451 1017.72549h1517.17647V8.784314H6.27451v1008.941176z m1520.941176 2.509804V1016.470588v3.764706zM0 1024V1.254902h1529.72549v1021.490196H0z" fill="#353636" p-id="1354"></path><path d="M3.764706 5.019608h1523.45098v1015.215686H3.764706z" fill="#243691" p-id="1355"></path><path d="M287.372549 5.019608h1016.470588v1015.215686z" fill="#F7D500" p-id="1356"></path><path d="M232.156863 23.843137l21.333333 66.509804h70.27451l-56.470588 41.411765 21.333333 66.509804-56.470588-41.411765-56.470588 41.411765 21.333333-66.509804-56.470588-41.411765h70.274509zM358.901961 150.588235l21.333333 66.509804h70.27451l-56.470588 41.411765 21.333333 66.509804-56.470588-40.156863-56.470588 40.156863 21.333333-66.509804-56.470588-41.411765h70.274509zM485.647059 277.333333l22.588235 67.764706H577.254902l-56.470588 40.156863 21.333333 67.764706-56.470588-41.411765-56.470588 41.411765 21.333333-67.764706-56.470588-40.156863H464.313725zM612.392157 405.333333l22.588235 66.509804h70.27451l-57.72549 41.411765 22.588235 66.509804-57.72549-41.411765-56.470588 41.411765 21.333333-66.509804-56.470588-41.411765h70.27451zM740.392157 532.078431l21.333333 66.509804h70.27451L775.529412 640l21.333333 66.509804L740.392157 665.098039l-57.72549 41.411765 22.588235-66.509804-57.72549-41.411765h70.27451zM867.137255 658.823529l21.333333 66.509804h70.27451l-56.470588 41.411765 21.333333 66.509804-56.470588-41.411765-56.470588 41.411765 21.333333-66.509804-56.470588-41.411765h69.019608zM993.882353 785.568627l21.333333 66.509804h70.27451L1029.019608 893.490196l21.333333 66.509804-56.470588-41.411765-56.470588 41.411765 21.333333-66.509804-56.470588-41.411765h70.27451zM105.411765 30.117647l56.470588 41.411765L140.54902 5.019608H70.27451L48.941176 71.529412zM1212.235294 978.823529H1141.960784l-21.333333-66.509804-21.333333 66.509804H1029.019608l56.470588 41.411765h70.27451z" fill="#FFFFFF" p-id="1357"></path></svg>