<?xml version="1.0" standalone="no"?><!DOCTYPE svg PUBLIC "-//W3C//DTD SVG 1.1//EN" "http://www.w3.org/Graphics/SVG/1.1/DTD/svg11.dtd"><svg t="1524128452293" class="icon" style="" viewBox="0 0 1024 1024" version="1.1" xmlns="http://www.w3.org/2000/svg" p-id="1047" xmlns:xlink="http://www.w3.org/1999/xlink" width="32" height="32"><defs><style type="text/css"></style></defs><path d="M512 819.2c-106.666667 0-200.96-54.613333-256-136.533333 1.28-85.333333 170.666667-132.266667 256-132.266667s254.72 46.933333 256 132.266667a308.565333 308.565333 0 0 1-256 136.533333M512 213.333333a128 128 0 0 1 128 128 128 128 0 0 1-128 128 128 128 0 0 1-128-128 128 128 0 0 1 128-128m0-128A426.666667 426.666667 0 0 0 85.333333 512a426.666667 426.666667 0 0 0 426.666667 426.666667 426.666667 426.666667 0 0 0 426.666667-426.666667c0-235.946667-192-426.666667-426.666667-426.666667z" fill="#A4AAB3" p-id="1048"></path></svg>