<?xml version="1.0" standalone="no"?><!DOCTYPE svg PUBLIC "-//W3C//DTD SVG 1.1//EN" "http://www.w3.org/Graphics/SVG/1.1/DTD/svg11.dtd"><svg t="1524212991377" class="icon" style="" viewBox="0 0 1024 1024" version="1.1" xmlns="http://www.w3.org/2000/svg" p-id="2507" xmlns:xlink="http://www.w3.org/1999/xlink" width="32" height="32"><defs><style type="text/css"></style></defs><path d="M831.508941 383.823736h-63.960731v-63.960731c0-141.29812-114.544803-255.842922-255.842922-255.842923S255.863389 178.565908 255.863389 319.863005v63.960731h-63.964824c-35.322483 0-63.956637 28.634154-63.956638 63.956637V895.508557c0 35.322483 28.634154 63.956637 63.956638 63.956638h639.610376c35.322483 0 63.956637-28.634154 63.956637-63.956638V447.780373c0-35.32146-28.634154-63.956637-63.956637-63.956637z m-511.684822-63.960731c0-105.97359 85.908602-191.882192 191.882192-191.882192S703.588503 213.889415 703.588503 319.863005v63.960731H319.824119v-63.960731z m511.684822 543.924083c0 17.520025-14.202467 31.722492-31.722492 31.722493H223.62515c-17.520025 0-31.722492-14.202467-31.722492-31.722493V479.506958c0-17.520025 14.202467-31.722492 31.722492-31.722492h576.161299c17.520025 0 31.722492 14.202467 31.722492 31.722492v384.28013z" p-id="2508" fill="#A4AAB3"></path><path d="M511.706311 511.745197c-70.64906 0-127.921461 57.272401-127.921461 127.921461 0 59.605539 40.766472 109.689215 95.939049 123.890658v36.269042c0 17.520025 14.202467 31.722492 31.722492 31.722492h0.515747c17.520025 0 31.722492-14.202467 31.722492-31.722492v-36.268019c55.174624-14.20042 95.943143-64.285119 95.943142-123.891681 0-70.64906-57.272401-127.921461-127.921461-127.921461z m0 191.882192c-35.32453 0-63.960731-28.636201-63.960731-63.960731 0-35.32453 28.636201-63.960731 63.960731-63.960731 35.32453 0 63.960731 28.636201 63.960731 63.960731 0 35.32453-28.636201 63.960731-63.960731 63.960731z" p-id="2509" fill="#A4AAB3"></path></svg>